<svg width="18" height="22" viewBox="0 0 18 22" fill="none" xmlns="http://www.w3.org/2000/svg">
<path d="M1.11765 13.6145C0.430968 12.325 0.0728474 10.886 0.0750031 9.425C0.0750031 4.49578 4.07078 0.5 9 0.5C13.9292 0.5 17.925 4.49578 17.925 9.425C17.9286 11.5304 17.1844 13.5687 15.825 15.1764L15.8145 15.1895C15.8108 15.1927 15.8077 15.1969 15.8051 15.2H15.825L10.5288 20.8228C10.3325 21.0312 10.0956 21.1972 9.83274 21.3107C9.56988 21.4242 9.28659 21.4828 9.00027 21.4828C8.71395 21.4828 8.43066 21.4242 8.16779 21.3107C7.90493 21.1972 7.66806 21.0312 7.47173 20.8228L2.175 15.2H2.19495L2.18655 15.19L2.1855 15.189C2.1477 15.1438 2.1099 15.0987 2.07263 15.0525C1.70848 14.6049 1.38849 14.1232 1.11713 13.614L1.11765 13.6145ZM8.9979 12.8375C9.83334 12.8375 10.6346 12.5056 11.2253 11.9149C11.816 11.3241 12.1479 10.5229 12.1479 9.6875C12.1479 8.85207 11.816 8.05085 11.2253 7.46011C10.6346 6.86937 9.83334 6.5375 8.9979 6.5375C8.16247 6.5375 7.36126 6.86937 6.77052 7.46011C6.17978 8.05085 5.8479 8.85207 5.8479 9.6875C5.8479 10.5229 6.17978 11.3241 6.77052 11.9149C7.36126 12.5056 8.16247 12.8375 8.9979 12.8375Z" fill="#F8F8F8"/>
</svg>
