<svg width="18" height="14" viewBox="0 0 18 14" fill="none" xmlns="http://www.w3.org/2000/svg">
<path d="M3.16665 0.333252H14.8333C15.4964 0.333252 16.1322 0.596644 16.6011 1.06549C17.0699 1.53433 17.3333 2.17021 17.3333 2.83325V11.1666C17.3333 11.8296 17.0699 12.4655 16.6011 12.9344C16.1322 13.4032 15.4964 13.6666 14.8333 13.6666H3.16665C2.50361 13.6666 1.86772 13.4032 1.39888 12.9344C0.930038 12.4655 0.666647 11.8296 0.666647 11.1666V2.83325C0.666647 2.17021 0.930038 1.53433 1.39888 1.06549C1.86772 0.596644 2.50361 0.333252 3.16665 0.333252ZM3.16665 1.99992L8.58331 5.72492C8.71 5.79806 8.8537 5.83656 8.99998 5.83656C9.14626 5.83656 9.28996 5.79806 9.41665 5.72492L14.8333 1.99992H3.16665Z" fill="#F8F8F8"/>
</svg>
