<svg width="353" height="362" viewBox="0 0 353 362" fill="none" xmlns="http://www.w3.org/2000/svg">
<path d="M320.065 179.784C320.065 182.78 321.813 185.545 324.747 187.582C327.678 189.618 331.755 190.893 336.282 190.893C340.81 190.893 344.887 189.618 347.818 187.582C350.752 185.545 352.5 182.78 352.5 179.784C352.5 176.788 350.752 174.022 347.818 171.985C344.887 169.949 340.81 168.674 336.282 168.674C331.755 168.674 327.678 169.949 324.747 171.985C321.813 174.022 320.065 176.788 320.065 179.784Z" stroke="white"/>
<path d="M80.091 151.212L122.602 168.256C123.587 168.651 124.66 167.925 124.66 166.864L124.66 132.775C124.66 131.714 123.587 130.988 122.602 131.383L80.0911 148.427C78.8353 148.931 78.8353 150.708 80.091 151.212Z" stroke="#C6FE7D" stroke-width="3"/>
<path d="M63.8105 102.273L91.5033 113.377C93.1458 114.035 94.9337 112.826 94.9337 111.056L94.9337 88.8499C94.9337 87.0804 93.1458 85.871 91.5033 86.5295L63.8105 97.6326C61.7176 98.4717 61.7176 101.434 63.8105 102.273Z" stroke="white"/>
<path d="M163.966 181.055C54.6585 380.626 -79.2675 47.5352 61.9195 4.02895C203.107 -39.4773 122.239 400.771 273.369 358.08C424.499 315.389 273.273 -18.5169 163.966 181.055Z" stroke="white"/>
</svg>
