<svg width="27" height="24" viewBox="0 0 27 24" fill="none" xmlns="http://www.w3.org/2000/svg">
<path d="M22.8924 3.48967C20.4077 1.23735 17.0948 0 13.5669 0C6.3024 0 0.384617 5.33714 0.378294 11.8888C0.378294 13.9872 0.985246 16.0285 2.13593 17.8361L0.270813 24L7.26341 22.3464C9.19175 23.2929 11.3603 23.7947 13.5669 23.7947H13.5732C20.8376 23.7947 26.7554 18.4576 26.7618 11.9002C26.7554 8.72416 25.3835 5.73628 22.8924 3.48967ZM13.5669 21.7819C11.5943 21.7819 9.66593 21.3029 7.98416 20.402L7.58585 20.1853L3.43835 21.1661L4.54477 17.5168L4.28555 17.1404C3.18545 15.5666 2.61011 13.7477 2.61011 11.8831C2.61011 6.44334 7.52895 2.00713 13.5732 2.00713C16.5005 2.00713 19.2507 3.0392 21.3245 4.90378C23.3919 6.77406 24.5299 9.25446 24.5299 11.8945C24.5236 17.3514 19.6048 21.7819 13.5669 21.7819ZM19.5795 14.3806C19.2507 14.2324 17.6322 13.5139 17.3287 13.4113C17.0252 13.3143 16.8039 13.263 16.589 13.5595C16.3677 13.856 15.7355 14.5289 15.5458 14.7227C15.3561 14.9223 15.1601 14.9451 14.8313 14.7969C14.5026 14.6486 13.4404 14.335 12.1823 13.32C11.2023 12.5331 10.5447 11.5581 10.3487 11.2616C10.1591 10.9651 10.3298 10.8054 10.4942 10.6572C10.6396 10.526 10.8229 10.3093 10.9873 10.1383C11.1517 9.96721 11.2086 9.84177 11.3161 9.6422C11.4236 9.44262 11.373 9.27156 11.2908 9.12331C11.2086 8.97505 10.5511 7.50962 10.2729 6.91661C10.0073 6.335 9.73548 6.41483 9.53316 6.40912C9.34349 6.39772 9.1222 6.39772 8.90092 6.39772C8.67963 6.39772 8.32558 6.47185 8.0221 6.76835C7.71862 7.06486 6.87142 7.78332 6.87142 9.24875C6.87142 10.7142 8.05371 12.1226 8.21809 12.3222C8.38248 12.5217 10.5384 15.521 13.845 16.8097C14.629 17.1176 15.2423 17.3001 15.7228 17.4369C16.5131 17.665 17.2275 17.6308 17.7966 17.5567C18.4288 17.4711 19.7439 16.8382 20.0221 16.1426C20.2939 15.4469 20.2939 14.8539 20.2117 14.7284C20.1295 14.603 19.9082 14.5289 19.5795 14.3806Z" fill="#BEFF6A"/>
</svg>
