<svg width="22" height="18" viewBox="0 0 22 18" fill="none" xmlns="http://www.w3.org/2000/svg">
<path d="M3.65 0.600098H18.35C19.1854 0.600098 19.9866 0.931972 20.5774 1.52271C21.1681 2.11345 21.5 2.91467 21.5 3.7501V14.2501C21.5 15.0855 21.1681 15.8867 20.5774 16.4775C19.9866 17.0682 19.1854 17.4001 18.35 17.4001H3.65C2.81457 17.4001 2.01335 17.0682 1.42261 16.4775C0.831875 15.8867 0.500001 15.0855 0.500001 14.2501V3.7501C0.500001 2.91467 0.831875 2.11345 1.42261 1.52271C2.01335 0.931972 2.81457 0.600098 3.65 0.600098V0.600098ZM3.65 2.7001L10.475 7.3936C10.6346 7.48576 10.8157 7.53427 11 7.53427C11.1843 7.53427 11.3654 7.48576 11.525 7.3936L18.35 2.7001H3.65Z" fill="#F8F8F8"/>
</svg>
