<svg width="28" height="24" viewBox="0 0 28 24" fill="none" xmlns="http://www.w3.org/2000/svg">
<path d="M13.8739 0C10.2603 0 9.80684 0.0142504 8.38756 0.072501C6.97106 0.131002 6.00418 0.333254 5.15816 0.630007C4.28303 0.93651 3.54068 1.34651 2.80111 2.01377C2.06098 2.68078 1.60637 3.35028 1.26541 4.13929C0.93554 4.90255 0.711006 5.77481 0.64725 7.05182C0.583771 8.33184 0.567139 8.74109 0.567139 12.0001C0.567139 15.2592 0.583217 15.6669 0.647527 16.9469C0.71267 18.2244 0.936926 19.0964 1.26569 19.8595C1.60581 20.6487 2.06043 21.3182 2.80028 21.9852C3.53958 22.6527 4.28192 23.0637 5.15649 23.3702C6.00307 23.667 6.97023 23.8692 8.38645 23.9277C9.80573 23.986 10.259 24.0002 13.8723 24.0002C17.4862 24.0002 17.9383 23.986 19.3576 23.9277C20.7741 23.8692 21.742 23.667 22.5886 23.3702C23.4635 23.0637 24.2047 22.6527 24.944 21.9852C25.6841 21.3182 26.1387 20.6487 26.4797 19.8597C26.8068 19.0964 27.0313 18.2242 27.0979 16.9472C27.1616 15.6672 27.1783 15.2592 27.1783 12.0001C27.1783 8.74109 27.1616 8.33209 27.0979 7.05207C27.0313 5.77456 26.8068 4.90255 26.4797 4.13954C26.1387 3.35028 25.6841 2.68078 24.944 2.01377C24.2039 1.34626 23.4637 0.93626 22.5878 0.630007C21.7395 0.333254 20.7721 0.131002 19.3556 0.072501C17.9363 0.0142504 17.4845 0 13.8698 0H13.8739ZM12.6803 2.16252C13.0346 2.16202 13.4299 2.16252 13.8739 2.16252C17.4266 2.16252 17.8476 2.17402 19.2506 2.23152C20.5479 2.28502 21.2519 2.48053 21.721 2.64478C22.3419 2.86228 22.7846 3.12228 23.25 3.54229C23.7157 3.96229 24.004 4.3623 24.2457 4.9223C24.4279 5.34481 24.6449 5.97981 24.7039 7.14982C24.7677 8.41484 24.7816 8.79484 24.7816 11.9974C24.7816 15.1999 24.7677 15.5799 24.7039 16.8449C24.6446 18.0149 24.4279 18.6499 24.2457 19.0724C24.0046 19.6325 23.7157 20.0312 23.25 20.451C22.7843 20.871 22.3422 21.131 21.721 21.3485C21.2525 21.5135 20.5479 21.7085 19.2506 21.762C17.8479 21.8195 17.4266 21.832 13.8739 21.832C10.321 21.832 9.89998 21.8195 8.49733 21.762C7.20003 21.708 6.49593 21.5125 6.02663 21.3482C5.4057 21.1307 4.96218 20.8707 4.49648 20.4507C4.03078 20.0307 3.74249 19.6317 3.50077 19.0714C3.31865 18.6489 3.1016 18.0139 3.04255 16.8439C2.9788 15.5789 2.96604 15.1989 2.96604 11.9944C2.96604 8.78984 2.9788 8.41184 3.04255 7.14682C3.10187 5.97681 3.31865 5.34181 3.50077 4.9188C3.74193 4.3588 4.03078 3.95879 4.49648 3.53879C4.96218 3.11878 5.4057 2.85878 6.02663 2.64078C6.49566 2.47578 7.20003 2.28077 8.49733 2.22702C9.72478 2.17702 10.2005 2.16202 12.6803 2.15952V2.16252ZM20.9764 4.15504C20.0949 4.15504 19.3797 4.7993 19.3797 5.59456C19.3797 6.38957 20.0949 7.03457 20.9764 7.03457C21.8579 7.03457 22.5731 6.38957 22.5731 5.59456C22.5731 4.79955 21.8579 4.15454 20.9764 4.15454V4.15504ZM13.8739 5.83756C10.1004 5.83756 7.04091 8.59684 7.04091 12.0001C7.04091 15.4034 10.1004 18.1614 13.8739 18.1614C17.6475 18.1614 20.7059 15.4034 20.7059 12.0001C20.7059 8.59684 17.6472 5.83756 13.8737 5.83756H13.8739ZM13.8739 8.00008C16.3233 8.00008 18.3092 9.79085 18.3092 12.0001C18.3092 14.2091 16.3233 16.0002 13.8739 16.0002C11.4243 16.0002 9.43871 14.2091 9.43871 12.0001C9.43871 9.79085 11.4243 8.00008 13.8739 8.00008V8.00008Z" fill="url(#paint0_linear_1909_147)"/>
<defs>
<linearGradient id="paint0_linear_1909_147" x1="0.567139" y1="10.8435" x2="28.6919" y2="18.2614" gradientUnits="userSpaceOnUse">
<stop stop-color="#C6FE7D"/>
<stop offset="1" stop-color="#BEFF6A"/>
</linearGradient>
</defs>
</svg>
