<svg width="23" height="20" viewBox="0 0 23 20" fill="none" xmlns="http://www.w3.org/2000/svg">
<path fill-rule="evenodd" clip-rule="evenodd" d="M8.42945 6.969H12.5475V8.819C13.1407 7.755 14.662 6.799 16.9472 6.799C21.3281 6.799 22.3681 8.917 22.3681 12.803V20H17.9329V13.688C17.9329 11.475 17.3397 10.227 15.8296 10.227C13.735 10.227 12.8646 11.572 12.8646 13.687V20H8.42945V6.969V6.969ZM0.824214 19.83H5.2594V6.799H0.824214V19.83V19.83ZM5.89474 2.55C5.8949 2.88528 5.82118 3.21724 5.67784 3.52659C5.53451 3.83594 5.32443 4.11651 5.05982 4.352C4.5236 4.83262 3.79779 5.10165 3.04181 5.1C2.28715 5.09954 1.56302 4.8312 1.02601 4.353C0.762355 4.11671 0.552986 3.83582 0.409905 3.52643C0.266823 3.21704 0.192842 2.88522 0.1922 2.55C0.1922 1.873 0.491575 1.225 1.02712 0.747C1.56365 0.268158 2.28809 -0.000299211 3.04292 2.50265e-07C3.79911 2.50265e-07 4.52427 0.269 5.05982 0.747C5.59426 1.225 5.89474 1.873 5.89474 2.55Z" fill="#BEFF6A"/>
</svg>
