<svg width="19" height="19" viewBox="0 0 19 19" fill="none" xmlns="http://www.w3.org/2000/svg">
<path d="M3.38728 1.18449C3.87238 0.874164 4.44914 0.739342 5.02153 0.802472C5.59393 0.865601 6.12744 1.12287 6.53325 1.53146L6.67417 1.68665L7.98224 3.24229C8.37924 3.71447 8.62867 4.29295 8.6995 4.90577C8.77033 5.51859 8.65944 6.13871 8.38062 6.68901L8.26476 6.89473L7.33484 8.4327C7.16812 8.71309 7.57585 9.49985 8.80504 10.6941C9.91124 11.7687 10.6851 12.1976 10.9913 12.1461L11.0435 12.1314L11.1043 12.101L13.3738 10.6364C13.6787 10.4393 14.034 10.3341 14.3971 10.3336C14.7602 10.3331 15.1158 10.4372 15.4213 10.6334L15.5711 10.7415L17.8623 12.5541C18.3113 12.9094 18.6259 13.407 18.7544 13.965C18.8829 14.523 18.8174 15.1081 18.5689 15.624L18.4644 15.8186L17.984 16.628C17.5524 17.354 16.9215 17.9408 16.1661 18.3187C15.4107 18.6965 14.5627 18.8495 13.7229 18.7595C11.1092 18.479 8.36565 16.9231 5.47907 14.119C2.58644 11.3074 0.94959 8.60603 0.598159 5.99466C0.492041 5.20524 0.601705 4.40183 0.915505 3.66973C1.22931 2.93763 1.73553 2.30419 2.3804 1.83668L2.59236 1.69276L3.38728 1.18449V1.18449Z" fill="#F8F8F8"/>
</svg>
