<svg width="155" height="155" viewBox="0 0 155 155" fill="none" xmlns="http://www.w3.org/2000/svg">
<g filter="url(#filter0_d_1869_159)">
<path d="M77.3709 90.3649C84.5331 90.3649 90.3392 84.5588 90.3392 77.3966C90.3392 70.2343 84.5331 64.4282 77.3709 64.4282C70.2086 64.4282 64.4025 70.2343 64.4025 77.3966C64.4025 84.5588 70.2086 90.3649 77.3709 90.3649Z" fill="#00D8FF"/>
<g filter="url(#filter1_d_1869_159)">
<path d="M77.3708 107.105C59.1583 107.105 43.245 104.961 31.3358 100.879C23.6117 98.2443 17.05 94.7309 12.3742 90.7268C7.41417 86.4901 4.77917 81.8659 4.77917 77.3968C4.77917 68.8201 14.1825 60.4243 29.9667 54.9476C42.8833 50.4526 59.7266 47.9468 77.345 47.9468C94.6533 47.9468 111.264 50.3751 124.103 54.8184C131.621 57.4018 137.95 60.7601 142.445 64.4801C147.327 68.5618 149.911 73.0309 149.911 77.3968C149.911 86.3093 139.397 95.3251 122.45 100.931C110.463 104.909 94.4466 107.105 77.3708 107.105ZM77.3708 54.1468C60.6566 54.1468 44.1233 56.5751 32.0333 60.7859C17.515 65.8493 11.005 72.7726 11.005 77.3968C11.005 82.2018 18.0058 89.7709 33.3508 95.0151C44.6142 98.8643 59.8558 100.905 77.3708 100.905C93.8008 100.905 109.12 98.8384 120.512 95.0409C136.452 89.7451 143.737 82.1759 143.737 77.3968C143.737 74.9426 141.877 72.0493 138.492 69.2334C134.592 65.9784 128.908 63.0076 122.114 60.6568C109.895 56.4718 94.0075 54.1468 77.3708 54.1468Z" fill="#00D8FF"/>
</g>
<g filter="url(#filter2_d_1869_159)">
<path d="M47.9467 142.032C45.3117 142.032 42.9867 141.464 41.0233 140.327C33.6092 136.039 31.0258 123.69 34.1517 107.286C36.7092 93.8268 42.9608 78.0168 51.77 62.7493C60.4242 47.766 70.8092 34.591 81.065 25.6785C87.0583 20.4601 93.1292 16.6368 98.6058 14.6218C104.573 12.426 109.74 12.426 113.512 14.596C121.236 19.0393 123.793 32.6793 120.177 50.1426C117.619 62.5426 111.522 77.5002 102.997 92.3027C93.9042 108.061 84.0875 120.771 74.6067 129.064C68.4583 134.437 62.1292 138.364 56.3425 140.404C53.32 141.489 50.4783 142.032 47.9467 142.032ZM54.4308 64.2993L57.1175 65.8493C48.7733 80.316 42.5992 95.8418 40.2225 108.448C37.355 123.561 40.1192 132.654 44.0975 134.954C45.0792 135.522 46.3708 135.832 47.9467 135.832C53.0875 135.832 61.1733 132.577 70.525 124.414C79.4892 116.586 88.8667 104.393 97.6242 89.2285C105.839 74.9943 111.677 60.6826 114.106 48.9285C117.49 32.4726 114.571 22.3976 110.412 19.9951C108.293 18.781 104.857 18.936 100.724 20.4601C95.945 22.2168 90.5458 25.6526 85.1208 30.3801C75.3817 38.8535 65.4358 51.4601 57.1175 65.8751L54.4308 64.2993Z" fill="#00D8FF"/>
</g>
<g filter="url(#filter3_d_1869_159)">
<path d="M106.612 142.092C99.5851 142.092 90.6726 137.855 81.3726 129.847C70.9876 120.908 60.4218 107.604 51.5868 92.3368C42.9068 77.3535 36.7068 61.776 34.0976 48.4201C32.5734 40.6185 32.2893 33.4626 33.2709 27.7018C34.3559 21.4243 36.9134 16.9551 40.7109 14.7593C48.4093 10.2901 61.5068 14.8884 74.8368 26.746C84.2918 35.1418 94.2118 47.9035 102.763 62.6801C111.882 78.4385 118.004 93.2926 120.433 105.641C122.008 113.649 122.267 121.089 121.156 127.134C119.968 133.567 117.281 138.139 113.406 140.387C111.468 141.523 109.169 142.092 106.612 142.092ZM56.9601 89.2368C65.3301 103.703 75.7151 116.801 85.4285 125.145C97.0793 135.168 106.328 137.338 110.332 135.013C114.491 132.611 117.539 122.768 114.388 106.855C112.063 95.1785 106.198 80.9701 97.4151 65.806C89.1743 51.5718 79.6935 39.3526 70.7293 31.396C58.1743 20.2359 47.9959 17.7301 43.8368 20.1326C41.7184 21.3468 40.1426 24.421 39.3934 28.761C38.5409 33.7726 38.7993 40.1793 40.1943 47.2318C42.6743 59.916 48.6159 74.8218 56.9601 89.2368Z" fill="#00D8FF"/>
</g>
</g>
<defs>
<filter id="filter0_d_1869_159" x="-4" y="0" width="163" height="163" filterUnits="userSpaceOnUse" color-interpolation-filters="sRGB">
<feFlood flood-opacity="0" result="BackgroundImageFix"/>
<feColorMatrix in="SourceAlpha" type="matrix" values="0 0 0 0 0 0 0 0 0 0 0 0 0 0 0 0 0 0 127 0" result="hardAlpha"/>
<feOffset dy="4"/>
<feGaussianBlur stdDeviation="2"/>
<feComposite in2="hardAlpha" operator="out"/>
<feColorMatrix type="matrix" values="0 0 0 0 0 0 0 0 0 0 0 0 0 0 0 0 0 0 0.25 0"/>
<feBlend mode="normal" in2="BackgroundImageFix" result="effect1_dropShadow_1869_159"/>
<feBlend mode="normal" in="SourceGraphic" in2="effect1_dropShadow_1869_159" result="shape"/>
</filter>
<filter id="filter1_d_1869_159" x="0.779175" y="47.9468" width="153.132" height="67.1582" filterUnits="userSpaceOnUse" color-interpolation-filters="sRGB">
<feFlood flood-opacity="0" result="BackgroundImageFix"/>
<feColorMatrix in="SourceAlpha" type="matrix" values="0 0 0 0 0 0 0 0 0 0 0 0 0 0 0 0 0 0 127 0" result="hardAlpha"/>
<feOffset dy="4"/>
<feGaussianBlur stdDeviation="2"/>
<feComposite in2="hardAlpha" operator="out"/>
<feColorMatrix type="matrix" values="0 0 0 0 0 0 0 0 0 0 0 0 0 0 0 0 0 0 0.25 0"/>
<feBlend mode="normal" in2="BackgroundImageFix" result="effect1_dropShadow_1869_159"/>
<feBlend mode="normal" in="SourceGraphic" in2="effect1_dropShadow_1869_159" result="shape"/>
</filter>
<filter id="filter2_d_1869_159" x="28.8495" y="12.9717" width="96.9424" height="137.06" filterUnits="userSpaceOnUse" color-interpolation-filters="sRGB">
<feFlood flood-opacity="0" result="BackgroundImageFix"/>
<feColorMatrix in="SourceAlpha" type="matrix" values="0 0 0 0 0 0 0 0 0 0 0 0 0 0 0 0 0 0 127 0" result="hardAlpha"/>
<feOffset dy="4"/>
<feGaussianBlur stdDeviation="2"/>
<feComposite in2="hardAlpha" operator="out"/>
<feColorMatrix type="matrix" values="0 0 0 0 0 0 0 0 0 0 0 0 0 0 0 0 0 0 0.25 0"/>
<feBlend mode="normal" in2="BackgroundImageFix" result="effect1_dropShadow_1869_159"/>
<feBlend mode="normal" in="SourceGraphic" in2="effect1_dropShadow_1869_159" result="shape"/>
</filter>
<filter id="filter3_d_1869_159" x="28.6985" y="13.0791" width="97.1369" height="137.013" filterUnits="userSpaceOnUse" color-interpolation-filters="sRGB">
<feFlood flood-opacity="0" result="BackgroundImageFix"/>
<feColorMatrix in="SourceAlpha" type="matrix" values="0 0 0 0 0 0 0 0 0 0 0 0 0 0 0 0 0 0 127 0" result="hardAlpha"/>
<feOffset dy="4"/>
<feGaussianBlur stdDeviation="2"/>
<feComposite in2="hardAlpha" operator="out"/>
<feColorMatrix type="matrix" values="0 0 0 0 0 0 0 0 0 0 0 0 0 0 0 0 0 0 0.25 0"/>
<feBlend mode="normal" in2="BackgroundImageFix" result="effect1_dropShadow_1869_159"/>
<feBlend mode="normal" in="SourceGraphic" in2="effect1_dropShadow_1869_159" result="shape"/>
</filter>
</defs>
</svg>
