<svg width="144" height="144" viewBox="0 0 144 144" fill="none" xmlns="http://www.w3.org/2000/svg">
<g filter="url(#filter0_d_1935_2757)">
<g filter="url(#filter1_dd_1935_2757)">
<path d="M123 15H21L30 117L72 129L114 117L123 15Z" fill="#E65100"/>
</g>
<path d="M72 24V119.7L105.6 110.1L113.1 24H72Z" fill="#FF6D00"/>
<path d="M72 75V63H97.8L95.7 97.5L72 105.3V92.7L84.3 88.5L85.2 75H72ZM98.7 51L99.6 39H72V51H98.7Z" fill="white"/>
<path d="M72 92.7V105.3L48.3 97.5L47.1 81H59.1L59.7 88.5L72 92.7ZM57.3 51H72V39H44.7L46.8 75H72V63H58.2L57.3 51Z" fill="#EEEEEE"/>
</g>
<defs>
<filter id="filter0_d_1935_2757" x="-4" y="0" width="152" height="152" filterUnits="userSpaceOnUse" color-interpolation-filters="sRGB">
<feFlood flood-opacity="0" result="BackgroundImageFix"/>
<feColorMatrix in="SourceAlpha" type="matrix" values="0 0 0 0 0 0 0 0 0 0 0 0 0 0 0 0 0 0 127 0" result="hardAlpha"/>
<feOffset dy="4"/>
<feGaussianBlur stdDeviation="2"/>
<feComposite in2="hardAlpha" operator="out"/>
<feColorMatrix type="matrix" values="0 0 0 0 0 0 0 0 0 0 0 0 0 0 0 0 0 0 0.25 0"/>
<feBlend mode="normal" in2="BackgroundImageFix" result="effect1_dropShadow_1935_2757"/>
<feBlend mode="normal" in="SourceGraphic" in2="effect1_dropShadow_1935_2757" result="shape"/>
</filter>
<filter id="filter1_dd_1935_2757" x="17" y="15" width="110" height="122" filterUnits="userSpaceOnUse" color-interpolation-filters="sRGB">
<feFlood flood-opacity="0" result="BackgroundImageFix"/>
<feColorMatrix in="SourceAlpha" type="matrix" values="0 0 0 0 0 0 0 0 0 0 0 0 0 0 0 0 0 0 127 0" result="hardAlpha"/>
<feOffset dy="4"/>
<feGaussianBlur stdDeviation="2"/>
<feComposite in2="hardAlpha" operator="out"/>
<feColorMatrix type="matrix" values="0 0 0 0 0 0 0 0 0 0 0 0 0 0 0 0 0 0 0.25 0"/>
<feBlend mode="normal" in2="BackgroundImageFix" result="effect1_dropShadow_1935_2757"/>
<feColorMatrix in="SourceAlpha" type="matrix" values="0 0 0 0 0 0 0 0 0 0 0 0 0 0 0 0 0 0 127 0" result="hardAlpha"/>
<feOffset dy="4"/>
<feGaussianBlur stdDeviation="2"/>
<feComposite in2="hardAlpha" operator="out"/>
<feColorMatrix type="matrix" values="0 0 0 0 0 0 0 0 0 0 0 0 0 0 0 0 0 0 0.25 0"/>
<feBlend mode="normal" in2="effect1_dropShadow_1935_2757" result="effect2_dropShadow_1935_2757"/>
<feBlend mode="normal" in="SourceGraphic" in2="effect2_dropShadow_1935_2757" result="shape"/>
</filter>
</defs>
</svg>
