<svg width="39" height="23" viewBox="0 0 39 23" fill="none" xmlns="http://www.w3.org/2000/svg">
<path d="M10.87 22L6.25 13.84H4.27V22H0.0700002V1.06H7.93C9.55 1.06 10.93 1.35 12.07 1.93C13.21 2.49 14.06 3.26 14.62 4.24C15.2 5.2 15.49 6.28 15.49 7.48C15.49 8.86 15.09 10.11 14.29 11.23C13.49 12.33 12.3 13.09 10.72 13.51L15.73 22H10.87ZM4.27 10.69H7.78C8.92 10.69 9.77 10.42 10.33 9.88C10.89 9.32 11.17 8.55 11.17 7.57C11.17 6.61 10.89 5.87 10.33 5.35C9.77 4.81 8.92 4.54 7.78 4.54H4.27V10.69Z" fill="#C6FE7D"/>
<path d="M18.2688 11.5C18.2688 9.44 18.7288 7.6 19.6488 5.98C20.5888 4.34 21.8588 3.07 23.4588 2.17C25.0788 1.25 26.8888 0.789999 28.8888 0.789999C31.2288 0.789999 33.2788 1.39 35.0388 2.59C36.7988 3.79 38.0288 5.45 38.7288 7.57H33.8988C33.4188 6.57 32.7388 5.82 31.8588 5.32C30.9988 4.82 29.9988 4.57 28.8588 4.57C27.6388 4.57 26.5488 4.86 25.5888 5.44C24.6488 6 23.9088 6.8 23.3688 7.84C22.8488 8.88 22.5888 10.1 22.5888 11.5C22.5888 12.88 22.8488 14.1 23.3688 15.16C23.9088 16.2 24.6488 17.01 25.5888 17.59C26.5488 18.15 27.6388 18.43 28.8588 18.43C29.9988 18.43 30.9988 18.18 31.8588 17.68C32.7388 17.16 33.4188 16.4 33.8988 15.4H38.7288C38.0288 17.54 36.7988 19.21 35.0388 20.41C33.2988 21.59 31.2488 22.18 28.8888 22.18C26.8888 22.18 25.0788 21.73 23.4588 20.83C21.8588 19.91 20.5888 18.64 19.6488 17.02C18.7288 15.4 18.2688 13.56 18.2688 11.5Z" fill="white"/>
</svg>
