<svg width="163" height="155" viewBox="0 0 163 155" fill="none" xmlns="http://www.w3.org/2000/svg">
<g clip-path="url(#clip0_1869_153)" filter="url(#filter0_d_1869_153)">
<g filter="url(#filter1_d_1869_153)">
<path d="M81.5006 25.8335C70.8989 25.8335 61.7843 28.6949 54.6298 34.8273C47.5268 40.9156 42.8801 49.7788 40.3025 60.8261C39.7398 63.2371 40.9667 65.7083 43.2273 66.7178C45.4879 67.7272 48.1469 66.9912 49.5666 64.9629C52.8384 60.289 56.1052 57.4805 59.2441 56.0392C62.2839 54.6434 65.5606 54.3605 69.3138 55.3659C73.1014 56.3804 76.0334 59.3516 80.6365 64.3578L80.7851 64.5196C84.255 68.2937 88.4877 72.8977 94.2771 76.4697C100.284 80.1763 107.76 82.6667 117.668 82.6667C128.269 82.6667 137.384 79.8052 144.538 73.6729C151.641 67.5846 156.287 58.7214 158.866 47.6741C159.428 45.2632 158.201 42.7919 155.94 41.7825C153.68 40.773 151.021 41.509 149.601 43.5372C146.329 48.2113 143.063 51.0197 139.924 52.4611C136.884 53.8569 133.607 54.1397 129.854 53.1344C126.067 52.1198 123.134 49.1486 118.532 44.1423L118.383 43.9805C114.913 40.2064 110.68 35.6024 104.891 32.0305C98.8835 28.3239 91.4079 25.8335 81.5006 25.8335Z" fill="#38BDF8"/>
</g>
<g filter="url(#filter2_d_1869_153)">
<path d="M45.3339 72.333C34.7323 72.333 25.6176 75.1944 18.4632 81.3268C11.3601 87.4151 6.71345 96.2782 4.13574 107.326C3.57317 109.737 4.79997 112.207 7.06059 113.217C9.32121 114.227 11.9802 113.491 13.4 111.462C16.6718 106.789 19.9385 103.98 23.0774 102.539C26.1173 101.143 29.3939 100.86 33.1471 101.865C36.9347 102.88 39.8667 105.851 44.4698 110.858L44.6185 111.019C48.0882 114.793 52.3211 119.397 58.1104 122.97C64.1178 126.676 71.5932 129.166 81.5006 129.166C92.1022 129.166 101.217 126.305 108.372 120.172C115.474 114.084 120.121 105.221 122.699 94.1736C123.261 91.7626 122.035 89.2915 119.774 88.2819C117.514 87.2724 114.854 88.0085 113.434 90.0367C110.163 94.7108 106.896 97.5192 103.757 98.9605C100.717 100.356 97.4406 100.639 93.6873 99.6339C89.8998 98.6193 86.9679 95.648 82.3648 90.6418L82.216 90.48C78.7463 86.706 74.5134 82.1019 68.7241 78.5299C62.7168 74.8234 55.2412 72.333 45.3339 72.333Z" fill="#38BDF8"/>
</g>
</g>
<defs>
<filter id="filter0_d_1869_153" x="0" y="0" width="163" height="163" filterUnits="userSpaceOnUse" color-interpolation-filters="sRGB">
<feFlood flood-opacity="0" result="BackgroundImageFix"/>
<feColorMatrix in="SourceAlpha" type="matrix" values="0 0 0 0 0 0 0 0 0 0 0 0 0 0 0 0 0 0 127 0" result="hardAlpha"/>
<feOffset dy="4"/>
<feGaussianBlur stdDeviation="2"/>
<feComposite in2="hardAlpha" operator="out"/>
<feColorMatrix type="matrix" values="0 0 0 0 0 0 0 0 0 0 0 0 0 0 0 0 0 0 0.25 0"/>
<feBlend mode="normal" in2="BackgroundImageFix" result="effect1_dropShadow_1869_153"/>
<feBlend mode="normal" in="SourceGraphic" in2="effect1_dropShadow_1869_153" result="shape"/>
</filter>
<filter id="filter1_d_1869_153" x="36.1667" y="25.8335" width="126.835" height="64.833" filterUnits="userSpaceOnUse" color-interpolation-filters="sRGB">
<feFlood flood-opacity="0" result="BackgroundImageFix"/>
<feColorMatrix in="SourceAlpha" type="matrix" values="0 0 0 0 0 0 0 0 0 0 0 0 0 0 0 0 0 0 127 0" result="hardAlpha"/>
<feOffset dy="4"/>
<feGaussianBlur stdDeviation="2"/>
<feComposite in2="hardAlpha" operator="out"/>
<feColorMatrix type="matrix" values="0 0 0 0 0 0 0 0 0 0 0 0 0 0 0 0 0 0 0.25 0"/>
<feBlend mode="normal" in2="BackgroundImageFix" result="effect1_dropShadow_1869_153"/>
<feBlend mode="normal" in="SourceGraphic" in2="effect1_dropShadow_1869_153" result="shape"/>
</filter>
<filter id="filter2_d_1869_153" x="0" y="72.333" width="126.835" height="64.8335" filterUnits="userSpaceOnUse" color-interpolation-filters="sRGB">
<feFlood flood-opacity="0" result="BackgroundImageFix"/>
<feColorMatrix in="SourceAlpha" type="matrix" values="0 0 0 0 0 0 0 0 0 0 0 0 0 0 0 0 0 0 127 0" result="hardAlpha"/>
<feOffset dy="4"/>
<feGaussianBlur stdDeviation="2"/>
<feComposite in2="hardAlpha" operator="out"/>
<feColorMatrix type="matrix" values="0 0 0 0 0 0 0 0 0 0 0 0 0 0 0 0 0 0 0.25 0"/>
<feBlend mode="normal" in2="BackgroundImageFix" result="effect1_dropShadow_1869_153"/>
<feBlend mode="normal" in="SourceGraphic" in2="effect1_dropShadow_1869_153" result="shape"/>
</filter>
<clipPath id="clip0_1869_153">
<rect width="155" height="155" fill="white" transform="translate(4)"/>
</clipPath>
</defs>
</svg>
